<svg width="15" height="19" viewBox="0 0 15 19" fill="none" xmlns="http://www.w3.org/2000/svg">
<path d="M4.35938 0.410156H4.47656V0.550781H5.39062V0.679688H5.53125V0.796875H5.66016V0.9375H5.53125V1.32422H4.86328V1.46484H3.67969V1.59375H3.5625V3.71484H3.42188V4.10156H3.5625V7.93359H3.67969V8.05078H3.94922V8.19141H5.80078V8.32031H5.92969V8.46094H6.07031V8.84766H5.80078V8.97656H0.914062V8.84766H0.796875V8.70703H0.667969V8.32031H0.796875V8.19141H1.05469V8.05078H1.71094V8.19141H2.10938V8.05078H2.37891V7.79297H2.50781V2.53125H2.64844V1.99219H2.50781V1.59375H2.37891V1.46484H1.32422V1.32422H0.398438V1.20703H0.257812V0.796875H0.398438V0.550781H4.35938V0.410156ZM8.02892 9V0.272727H11.3016C11.9721 0.272727 12.5346 0.389204 12.9891 0.622159C13.4465 0.855113 13.7917 1.18182 14.0247 1.60227C14.2605 2.01989 14.3784 2.5071 14.3784 3.06392C14.3784 3.62358 14.259 4.10937 14.0204 4.52131C13.7846 4.9304 13.4366 5.24716 12.9764 5.47159C12.5161 5.69318 11.9508 5.80398 11.2803 5.80398H8.94938V4.49148H11.0673C11.4593 4.49148 11.7803 4.4375 12.0303 4.32955C12.2803 4.21875 12.465 4.05824 12.5843 3.84801C12.7065 3.63494 12.7676 3.37358 12.7676 3.06392C12.7676 2.75426 12.7065 2.49006 12.5843 2.27131C12.4622 2.04972 12.2761 1.8821 12.0261 1.76847C11.7761 1.65199 11.4536 1.59375 11.0588 1.59375H9.60989V9H8.02892ZM12.5374 5.04545L14.698 9H12.9338L10.8116 5.04545H12.5374ZM0.758523 19V10.2727H4.2017C4.8608 10.2727 5.4233 10.3906 5.8892 10.6264C6.35795 10.8594 6.71449 11.1903 6.95881 11.6193C7.20597 12.0455 7.32955 12.5469 7.32955 13.1236C7.32955 13.7031 7.20455 14.2017 6.95455 14.6193C6.70455 15.0341 6.34233 15.3523 5.8679 15.5739C5.39631 15.7955 4.82528 15.9062 4.15483 15.9062H1.84943V14.4233H3.85653C4.20881 14.4233 4.50142 14.375 4.73438 14.2784C4.96733 14.1818 5.14063 14.0369 5.25426 13.8438C5.37074 13.6506 5.42898 13.4105 5.42898 13.1236C5.42898 12.8338 5.37074 12.5895 5.25426 12.3906C5.14063 12.1918 4.96591 12.0412 4.73011 11.9389C4.49716 11.8338 4.20313 11.7812 3.84801 11.7812H2.60369V19H0.758523ZM5.47159 15.0284L7.64062 19H5.60369L3.48153 15.0284H5.47159ZM8.379 19H8.235L11.823 10.6L11.955 10.54L14.979 19H13.959L13.023 16.36H9.519L8.379 19ZM11.451 11.896L9.567 16.24H12.987L11.451 11.896Z" fill="#97BC62"/>
</svg>
