<svg width="10" height="10" viewBox="0 0 10 10" fill="none" xmlns="http://www.w3.org/2000/svg">
<g clip-path="url(#clip0_69_9)">
<path d="M10 0H0V10H10V0Z" fill="#1C2D2B"/>
<path d="M3.69978 1.57496H3.74163V1.62518H4.06806V1.67122H4.11828V1.71308H4.16435V1.7633H4.11828V1.90141H3.87974V1.95163H3.45702V1.99767H3.41517V2.7552H3.36495V2.89332H3.41517V4.2619H3.45702V4.30376H3.55328V4.35398H4.21456V4.40001H4.2606V4.45023H4.31081V4.58837H4.21456V4.6344H2.4693V4.58837H2.42745V4.53812H2.38141V4.40001H2.42745V4.35398H2.51952V4.30376H2.7539V4.35398H2.8962V4.30376H2.99246V4.21169H3.0385V2.33249H3.08872V2.13997H3.0385V1.99767H2.99246V1.95163H2.61579V1.90141H2.28515V1.85956H2.23492V1.71308H2.28515V1.62518H3.69978V1.57496ZM5.01031 4.64276V1.52588H6.17913C6.4186 1.52588 6.61949 1.56748 6.78181 1.65068C6.94517 1.73387 7.06846 1.85055 7.15167 2.00071C7.23588 2.14986 7.27799 2.32387 7.27799 2.52273C7.27799 2.72261 7.23535 2.89611 7.15013 3.04323C7.06592 3.18933 6.94164 3.30246 6.77728 3.38261C6.61289 3.46175 6.41099 3.50133 6.17153 3.50133H5.33906V3.03258H6.09546C6.23546 3.03258 6.3501 3.0133 6.43938 2.97474C6.52867 2.93517 6.59463 2.87785 6.63724 2.80276C6.68088 2.72667 6.70271 2.63333 6.70271 2.52273C6.70271 2.41214 6.68088 2.31778 6.63724 2.23966C6.59363 2.16052 6.52717 2.10065 6.43788 2.06007C6.3486 2.01847 6.23342 1.99767 6.09242 1.99767H5.57496V4.64276H5.01031ZM6.62049 3.23042L7.39213 4.64276H6.76206L6.00413 3.23042H6.62049ZM2.41375 8.21419V5.0973H3.64346C3.87885 5.0973 4.07974 5.1394 4.24614 5.22362C4.41356 5.30683 4.54089 5.42501 4.62814 5.57823C4.71642 5.73044 4.76053 5.90951 4.76053 6.11548C4.76053 6.32244 4.71589 6.50051 4.6266 6.64965C4.53731 6.7978 4.40796 6.91144 4.23853 6.99058C4.0701 7.06973 3.86617 7.10926 3.62671 7.10926H2.80336V6.57965H3.52018C3.64599 6.57965 3.75049 6.5624 3.83371 6.5279C3.91688 6.4934 3.97878 6.44165 4.01939 6.37269C4.06096 6.30369 4.08178 6.21794 4.08178 6.11548C4.08178 6.01198 4.06096 5.92473 4.01939 5.85369C3.97878 5.78269 3.91638 5.7289 3.83217 5.69237C3.74899 5.65483 3.64396 5.63605 3.51714 5.63605H3.07274V8.21419H2.41375ZM4.09699 6.79576L4.87164 8.21419H4.14417L3.38625 6.79576H4.09699ZM5.13535 8.21419H5.08392L6.36535 5.21419L6.41249 5.19276L7.49249 8.21419H7.12821L6.79392 7.27133H5.54249L5.13535 8.21419ZM6.23249 5.67705L5.55964 7.22847H6.78106L6.23249 5.67705Z" fill="#97BC62"/>
</g>
<defs>
<clipPath id="clip0_69_9">
<rect width="10" height="10" fill="white"/>
</clipPath>
</defs>
</svg>
